<?xml version="1.0" encoding="utf-8"?>
<!-- Generator: Adobe Illustrator 22.0.1, SVG Export Plug-In . SVG Version: 6.00 Build 0)  -->
<svg version="1.1" id="Слой_1" xmlns="http://www.w3.org/2000/svg" xmlns:xlink="http://www.w3.org/1999/xlink" x="0px" y="0px"
	 viewBox="0 0 18 16" style="enable-background:new 0 0 18 16;" xml:space="preserve">
<style type="text/css">
	.st0{display:none;fill:#333E48;}
	.st1{fill:#FE0000;}
</style>
<path class="st0" d="M16.5,1.5C15.6,0.5,14.4,0,13,0s-2.6,0.5-3.5,1.5L9,2L8.5,1.5C7.6,0.5,6.3,0,5,0C3.6,0,2.4,0.5,1.5,1.5
	C0.5,2.4,0,3.7,0,5c0,1.3,0.5,2.6,1.5,3.6l7.2,7.2C8.7,15.9,8.9,16,9,16c0.1,0,0.3-0.1,0.4-0.2l7.2-7.2c0.9-1,1.5-2.2,1.5-3.6
	C18,3.7,17.5,2.4,16.5,1.5z M15.8,7.9L9,14.7L2.2,7.9C1.4,7.1,1,6.1,1,5C1,4,1.4,3,2.2,2.2C2.9,1.5,3.9,1,5,1C6,1,7,1.5,7.8,2.2
	l0.9,0.9c0.2,0.2,0.5,0.2,0.7,0l0.9-0.9C11,1.5,12,1.1,13,1.1c1.1,0,2,0.4,2.8,1.2C16.6,3,17,4,17,5.1C17,6.1,16.6,7.1,15.8,7.9z"/>
<path class="st1" d="M16.5,1.5C15.6,0.5,14.4,0,13,0s-2.6,0.5-3.5,1.5L9,2L8.5,1.5C7.6,0.5,6.3,0,5,0C3.6,0,2.4,0.5,1.5,1.5
	C0.5,2.4,0,3.7,0,5c0,1.3,0.5,2.6,1.5,3.6l7.2,7.2C8.7,15.9,8.9,16,9,16c0.1,0,0.3-0.1,0.4-0.2l7.2-7.2C17.5,7.7,18,6.4,18,5
	C18,3.7,17.5,2.4,16.5,1.5z"/>
</svg>
