<?xml version="1.0" encoding="utf-8"?>
<!-- Generator: Adobe Illustrator 22.0.1, SVG Export Plug-In . SVG Version: 6.00 Build 0)  -->
<svg version="1.1" id="Слой_1" xmlns="http://www.w3.org/2000/svg" xmlns:xlink="http://www.w3.org/1999/xlink" x="0px" y="0px"
	 viewBox="0 0 14 16" style="enable-background:new 0 0 14 16;" xml:space="preserve">
<style type="text/css">
	.st0{fill:#333E48;}
</style>
<path class="st0" d="M14,4.1c0-0.4,0-0.8,0-1.2c0-0.3-0.3-0.6-0.6-0.6c-2.5,0-4.4-0.7-6-2.2c-0.2-0.2-0.6-0.2-0.8,0
	C5,1.6,3.1,2.3,0.6,2.3C0.3,2.3,0,2.6,0,2.9c0,0.4,0,0.8,0,1.2c-0.1,4-0.2,9.5,6.8,11.8c0.1,0,0.1,0,0.2,0c0.1,0,0.1,0,0.2,0
	C14.2,13.6,14.1,8.1,14,4.1z M7,14.8C1,12.8,1.1,8.2,1.2,4.1c0-0.2,0-0.5,0-0.7C3.5,3.3,5.4,2.7,7,1.3c1.6,1.3,3.5,2,5.8,2.1
	c0,0.2,0,0.5,0,0.7C12.9,8.2,13,12.8,7,14.8z"/>
</svg>
