<?xml version="1.0" encoding="utf-8"?>
<!-- Generator: Adobe Illustrator 22.1.0, SVG Export Plug-In . SVG Version: 6.00 Build 0)  -->
<svg version="1.1" id="user" xmlns="http://www.w3.org/2000/svg" xmlns:xlink="http://www.w3.org/1999/xlink" x="0px" y="0px"
	 viewBox="0 0 409.2 405.3" style="enable-background:new 0 0 409.2 405.3;" xml:space="preserve">
<g>
	<g>
		<path d="M204.6,214.8c50.7,0,91.7-48.1,91.7-107.4C296.3,25.1,255.2,0,204.6,0c-50.7,0-91.7,25.1-91.7,107.4
			C112.8,166.7,153.9,214.8,204.6,214.8z"/>
		<path d="M407.2,372.8l-46.3-104.3c-2.1-4.8-5.8-8.7-10.5-11.1L278.6,220c-1.6-0.8-3.5-0.7-4.9,0.4c-20.3,15.4-44.2,23.5-69.1,23.5
			c-24.9,0-48.8-8.1-69.1-23.5c-1.4-1.1-3.3-1.2-4.9-0.4l-71.8,37.4c-4.6,2.4-8.3,6.4-10.5,11.1L2,372.8c-3.2,7.2-2.5,15.4,1.8,22
			c4.3,6.6,11.5,10.5,19.4,10.5H386c7.9,0,15.1-3.9,19.4-10.5C409.7,388.2,410.4,380,407.2,372.8z"/>
	</g>
</g>
</svg>
