<?xml version="1.0" encoding="utf-8"?>
<!-- Generator: Adobe Illustrator 22.1.0, SVG Export Plug-In . SVG Version: 6.00 Build 0)  -->
<svg version="1.1" id="Слой_1" xmlns="http://www.w3.org/2000/svg" xmlns:xlink="http://www.w3.org/1999/xlink" x="0px" y="0px"
	 viewBox="0 0 491 454.4" style="enable-background:new 0 0 491 454.4;" xml:space="preserve">
<style type="text/css">
	.st0{fill:#333E48;}
	.st1{font-family:'MyriadPro-Regular';}
	.st2{font-size:193.3988px;}
</style>
<path class="st0" d="M395.1,238.8V116.6c0-2.1-1.1-4.1-3-5.2L200.6,0.8c-1.9-1.1-4.1-1.1-6,0L3,111.4c-1.9,1.1-3,3-3,5.2v221.2
	c0,2.1,1.1,4.1,3,5.2l191.6,110.6c1.9,1.1,4.1,1.1,6,0L303,394.4c25.6,40.8,76.3,58.1,121.5,41.4c45.2-16.7,72.5-62.8,65.4-110.5
	C482.8,277.8,443.2,241.6,395.1,238.8L395.1,238.8z M197.6,12.9l81.9,47.3L99.9,163.9L18,116.6L197.6,12.9z M191.6,438L12,334.3
	V126.9l179.6,103.7V438z M197.6,220.3l-85.7-49.5L291.4,67.1l85.7,49.5L197.6,220.3z M203.5,438V230.6l179.6-103.7v111.9
	c-33.7,2-64.3,20.6-81.5,49.7c-17.2,29.1-18.9,64.8-4.4,95.4L203.5,438z M389.2,430.2c-49.6,0-89.8-40.2-89.8-89.8
	s40.2-89.8,89.8-89.8s89.8,40.2,89.8,89.8C479,390,438.8,430.2,389.2,430.2z"/>
<g id="Слой_2">
	<text transform="matrix(1 0 0 1 339.5078 403.9157)" class="st0 st1 st2">$</text>
</g>
</svg>
