<?xml version="1.0" encoding="utf-8"?>
<!-- Generator: Adobe Illustrator 22.1.0, SVG Export Plug-In . SVG Version: 6.00 Build 0)  -->
<svg version="1.1" id="Слой_1" xmlns="http://www.w3.org/2000/svg" xmlns:xlink="http://www.w3.org/1999/xlink" x="0px" y="0px"
	 viewBox="0 0 502.1 99.4" style="enable-background:new 0 0 502.1 99.4;" xml:space="preserve">
<style type="text/css">
	.st0{fill:#FFFFFF;}
	.st1{fill:#FEDA00;}
	.st2{fill:#FEC500;}
</style>
<path class="st0" d="M19.8,94.4c-0.1,1.5-0.6,2.7-1.6,3.6c-0.9,0.9-2.2,1.3-3.7,1.3c-1.7,0-3.1-0.6-4.1-1.7c-1-1.2-1.5-2.7-1.5-4.6
	c0-1.2,0.2-2.2,0.7-3.2c0.4-0.9,1.1-1.7,2-2.3c0.9-0.6,1.9-0.9,3.1-0.9c1.3,0,2.4,0.4,3.3,1.1c1,0.7,1.5,1.7,1.7,3.1h-2.1
	c-0.1-0.7-0.5-1.3-1-1.7c-0.5-0.4-1.2-0.6-2-0.6s-1.5,0.2-2,0.7c-0.6,0.5-1,1-1.2,1.7s-0.3,1.4-0.3,2.2c0,0.6,0.1,1.1,0.2,1.7
	c0.1,0.5,0.3,1,0.6,1.4s0.6,0.8,1.1,1c0.5,0.3,1,0.4,1.6,0.4c1.8,0,2.8-1,3.1-3.1L19.8,94.4L19.8,94.4z M31.7,86.9L36.4,99h-2.3
	l-1.2-3.2h-4.8L26.9,99h-2.2l4.7-12.1H31.7z M32.4,94.2l-1.8-5.1l-1.9,5.1H32.4z M41.9,99V86.9H44v9.3l5.2-9.3h2.5V99h-2.1v-9.3
	L44.4,99H41.9z M49.6,83.8c-0.1,0.8-0.4,1.4-0.8,1.8c-0.5,0.4-1.1,0.6-2,0.6s-1.5-0.2-2-0.6s-0.7-1-0.8-1.8h1
	c0.2,0.9,0.8,1.3,1.8,1.3s1.6-0.4,1.8-1.3H49.6z M67.3,86.9v1.8h-3.9V99h-2.1V88.7h-3.9v-1.8L67.3,86.9L67.3,86.9z M92,86.9V99h-2.1
	V88.7h-5.5V99h-2.1V86.9H92z M104.2,86.6c1.7,0,3.1,0.6,4.2,1.8c1.1,1.2,1.6,2.7,1.6,4.6s-0.5,3.4-1.6,4.6s-2.5,1.8-4.2,1.8
	s-3.1-0.6-4.2-1.8c-1.1-1.2-1.6-2.7-1.6-4.6c0-1.8,0.5-3.4,1.6-4.5C100.9,87.2,102.4,86.6,104.2,86.6z M104.1,88.4
	c-1.1,0-2,0.4-2.7,1.2c-0.7,0.8-1,1.9-1,3.3s0.3,2.5,1,3.3s1.6,1.2,2.7,1.2s2-0.4,2.6-1.2c0.7-0.8,1-1.9,1-3.3s-0.3-2.5-1-3.3
	C106.2,88.8,105.3,88.4,104.1,88.4z M116.3,99V86.9h2.1v9.3l5.2-9.3h2.5V99h-2.2v-9.3l-5.2,9.3H116.3z M143.4,94.4
	c-0.1,1.5-0.6,2.7-1.6,3.6c-0.9,0.9-2.2,1.3-3.7,1.3c-1.7,0-3.1-0.6-4.1-1.7c-1-1.2-1.5-2.7-1.5-4.6c0-1.2,0.2-2.2,0.7-3.2
	c0.4-0.9,1.1-1.7,2-2.3c0.9-0.6,1.9-0.9,3.1-0.9c1.3,0,2.4,0.4,3.3,1.1c1,0.7,1.5,1.7,1.7,3.1h-2.1c-0.1-0.7-0.5-1.3-1-1.7
	c-0.5-0.4-1.2-0.6-2-0.6s-1.5,0.2-2,0.7c-0.6,0.5-1,1-1.2,1.7s-0.3,1.4-0.3,2.2c0,0.6,0.1,1.1,0.2,1.7c0.1,0.5,0.3,1,0.6,1.4
	s0.6,0.8,1.1,1c0.5,0.3,1,0.4,1.6,0.4c1.8,0,2.8-1,3.1-3.1L143.4,94.4L143.4,94.4L143.4,94.4z M159.8,86.9l-4.8,4.8l5.2,7.3h-2.6
	l-4-5.8l-1.7,1.7V99h-2.1V86.9h2.1v5.5l5.4-5.5H159.8z M171.3,86.9l4.6,12.1h-2.3l-1.2-3.2h-4.8l-1.2,3.2h-2.2l4.7-12.1H171.3z
	 M172,94.2l-1.8-5.1l-1.9,5.1H172z M190.7,86.9h5.3c1.3,0,2.3,0.3,3.1,0.9s1.1,1.5,1.1,2.8c0,1.2-0.4,2.1-1.1,2.7
	c-0.7,0.7-1.7,1-2.9,1h-3.4V99h-2.1L190.7,86.9L190.7,86.9z M192.8,88.7v4h3c1.5,0,2.3-0.7,2.3-2s-0.8-2-2.5-2H192.8z M210.7,86.9
	l4.7,12.1h-2.3l-1.2-3.2h-4.8l-1.2,3.2h-2.2l4.7-12.1H210.7z M211.4,94.2l-1.8-5.1l-1.9,5.1H211.4z M230.8,95.2
	c0,1.2-0.4,2.1-1.1,2.8c-0.7,0.7-1.7,1-3.1,1h-5.7V86.9h8.9v1.8H223v2.8h3.6c1.3,0,2.3,0.3,3.1,1C230.4,93.1,230.8,94.1,230.8,95.2z
	 M226.6,97.3c1.4,0,2.1-0.7,2.1-2c0-0.6-0.2-1.1-0.6-1.5s-0.9-0.5-1.6-0.5H223v4H226.6L226.6,97.3z M242.5,86.6
	c1.7,0,3.1,0.6,4.2,1.8c1.1,1.2,1.6,2.7,1.6,4.6s-0.5,3.4-1.6,4.6s-2.5,1.8-4.2,1.8s-3.1-0.6-4.2-1.8c-1.1-1.2-1.6-2.7-1.6-4.6
	c0-1.8,0.5-3.4,1.6-4.5C239.3,87.2,240.7,86.6,242.5,86.6z M242.5,88.4c-1.1,0-2,0.4-2.7,1.2c-0.7,0.8-1,1.9-1,3.3s0.3,2.5,1,3.3
	s1.6,1.2,2.7,1.2s2-0.4,2.6-1.2c0.7-0.8,1-1.9,1-3.3s-0.3-2.5-1-3.3C244.5,88.8,243.6,88.4,242.5,88.4z M263,86.9v1.8h-3.9V99H257
	V88.7h-3.9v-1.8L263,86.9L263,86.9z M278,95.2c0,1.2-0.4,2.1-1.1,2.8c-0.7,0.7-1.7,1-3.1,1h-5V86.9h2.1v4.6h2.9c1.3,0,2.3,0.3,3.1,1
	S278,94.1,278,95.2z M273.8,97.3c1.4,0,2.1-0.7,2.1-2c0-0.6-0.2-1.1-0.6-1.5s-0.9-0.5-1.6-0.5h-2.8v4H273.8L273.8,97.3z M279.4,86.9
	h2.1V99h-2.1V86.9z M307.4,86.9V99h-2.1V88.7h-5.5V99h-2.1V86.9H307.4z M319.5,86.6c1.7,0,3.1,0.6,4.2,1.8c1.1,1.2,1.6,2.7,1.6,4.6
	s-0.5,3.4-1.6,4.6s-2.5,1.8-4.2,1.8s-3.1-0.6-4.2-1.8c-1.1-1.2-1.6-2.7-1.6-4.6c0-1.8,0.5-3.4,1.6-4.5
	C316.3,87.2,317.7,86.6,319.5,86.6z M319.5,88.4c-1.1,0-2,0.4-2.7,1.2c-0.7,0.8-1,1.9-1,3.3s0.3,2.5,1,3.3s1.6,1.2,2.7,1.2
	s2-0.4,2.6-1.2c0.7-0.8,1-1.9,1-3.3s-0.3-2.5-1-3.3C321.5,88.8,320.6,88.4,319.5,88.4z M340.8,86.9h5.5c1.3,0,2.2,0.3,2.9,0.8
	c0.7,0.5,1,1.3,1,2.2c0,0.6-0.2,1.1-0.5,1.6s-0.7,0.8-1.3,1c0.7,0.2,1.3,0.5,1.7,1c0.4,0.5,0.6,1.2,0.6,1.9c0,1.1-0.4,1.9-1.1,2.6
	s-1.6,1-2.8,1h-6.2V86.9H340.8z M342.9,88.6v3.3h2.9c0.8,0,1.4-0.1,1.8-0.4s0.6-0.7,0.6-1.3c0-0.7-0.2-1.1-0.6-1.3
	c-0.4-0.2-1-0.3-1.7-0.3L342.9,88.6L342.9,88.6z M342.9,93.5v3.8h3.2c0.8,0,1.5-0.1,1.9-0.4c0.5-0.3,0.7-0.8,0.7-1.5
	c0-0.4-0.1-0.7-0.2-1s-0.3-0.5-0.6-0.6c-0.3-0.1-0.5-0.2-0.8-0.3c-0.3,0-0.6-0.1-1-0.1L342.9,93.5L342.9,93.5z M367.6,94.4
	c-0.1,1.5-0.6,2.7-1.6,3.6c-0.9,0.9-2.2,1.3-3.7,1.3c-1.7,0-3.1-0.6-4.1-1.7c-1-1.2-1.5-2.7-1.5-4.6c0-1.2,0.2-2.2,0.7-3.2
	c0.4-0.9,1.1-1.7,2-2.3c0.9-0.6,1.9-0.9,3.1-0.9c1.3,0,2.4,0.4,3.3,1.1c1,0.7,1.5,1.7,1.7,3.1h-2.1c-0.1-0.7-0.5-1.3-1-1.7
	c-0.5-0.4-1.2-0.6-2-0.6s-1.5,0.2-2,0.7c-0.6,0.5-1,1-1.2,1.7s-0.3,1.4-0.3,2.2c0,0.6,0.1,1.1,0.2,1.7c0.1,0.5,0.3,1,0.6,1.4
	c0.3,0.4,0.6,0.8,1.1,1c0.5,0.3,1,0.4,1.6,0.4c1.8,0,2.8-1,3.1-3.1L367.6,94.4L367.6,94.4L367.6,94.4z M382.6,86.9v1.8H376v3.2h6.1
	v1.7H376v3.6h6.7V99h-8.8V86.9H382.6z M401.6,86.9V99h-2v-9.3l-3.4,9.3h-1.7l-3.5-9.3V99h-2V86.9h3l3.4,9.5l3.3-9.5H401.6z
	 M411.4,95.6l-4.2-8.7h2.3l2.9,6.5l3-6.5h2.3l-4.7,9.6c-0.5,1-1,1.7-1.6,2.1s-1.2,0.6-1.9,0.6c-0.5,0-1-0.1-1.4-0.3v-1.8
	c0.3,0.2,0.8,0.3,1.4,0.3c0.4,0,0.7-0.1,0.9-0.4C410.7,96.8,411,96.3,411.4,95.6L411.4,95.6z M445.1,86.9V99h-2v-9.3l-3.4,9.3H438
	l-3.5-9.3V99h-2V86.9h3l3.4,9.5l3.3-9.5H445.1z M452,99V86.9h2.1v9.3l5.2-9.3h2.5V99h-2.1v-9.3l-5.2,9.3H452z M468.8,86.9h5.3
	c1.3,0,2.3,0.3,3.1,0.9s1.1,1.5,1.1,2.8c0,1.2-0.4,2.1-1.1,2.7c-0.7,0.7-1.7,1-2.9,1h-3.4V99h-2.1V86.9z M470.9,88.7v4h3
	c1.5,0,2.3-0.7,2.3-2s-0.8-2-2.5-2H470.9z M487.3,95.6l-4.2-8.7h2.3l2.9,6.5l3-6.5h2.3l-4.7,9.6c-0.5,1-1,1.7-1.6,2.1
	s-1.2,0.6-1.9,0.6c-0.5,0-1-0.1-1.4-0.3v-1.8c0.3,0.2,0.8,0.3,1.4,0.3c0.4,0,0.7-0.1,0.9-0.4C486.6,96.8,486.9,96.3,487.3,95.6
	L487.3,95.6z"/>
<path class="st0" d="M45.5,66L34.7,28.7L24,66h-8.7L0,13.5h9.2l10.4,37.9L30,13.6l9.2-0.1l10.5,37.9l10.5-37.9h9.2L54.2,66H45.5z
	 M116.6,66l-10.7-37.3L95.2,66h-8.7L71.2,13.5h9.2l10.4,37.9l10.4-37.8l9.2-0.1l10.5,37.9l10.5-37.9h9.2L125.3,66H116.6z
	 M162.6,33.3l9.2,2.6c4.4,1.3,7.3,2.8,9.6,5c3,2.8,4.7,6.6,4.7,10.8c0,4.5-2.6,9.2-6.6,12c-3.9,2.6-8.8,3.4-14.1,3.4
	c-6.9,0-12.9-1.9-17.1-7.1c-2.5-3.1-3.8-6.6-4.6-10.1l8.9-2.3c0.4,2.6,1.4,5,2.8,6.8c2.3,3.1,6.6,4.5,10.4,4.5c3,0,6.6-0.8,8.7-2.3
	c1.8-1.4,2.4-3.3,2.4-5c0-1.6-0.6-3.1-1.8-4.2c-1.3-1.2-3-2-5.3-2.6l-9.7-2.8c-3.9-1.1-7.4-2.6-10-4.9c-3-2.6-4.4-6.4-4.4-10
	c0-5.5,3.6-10.4,8.3-12.5c3.6-1.8,7.4-2,10.9-2c3.6,0.1,7.6,0.7,10.9,2.6c4.4,2.4,7.8,6.6,9.8,11.7l-8.8,2.4c-1.4-2.8-2.7-5-5.3-6.5
	c-1.8-1.1-4.2-2-6.7-2c-2.6-0.1-5,0.5-6.6,1.5c-2,1.2-3.1,3.1-3.1,5c0,1.2,0.4,2.3,1.2,3.1C157.4,31.5,159.9,32.5,162.6,33.3z
	 M340.6,66l-13.5-46.9L313.7,66h-3.2l-15-52.5h3.1l13.5,47l13.4-47h3.2l13.5,47l13.4-47h3.2l-15,52.5H340.6z M400.7,22.7
	c-3.4-4.8-9.4-7.2-15.5-7.1c-6,0.1-12,2.3-15.5,7.1c-3.6,4.7-4.7,11-4.7,17.1c-0.1,6.1,1.1,12.5,4.7,17.1c3.5,4.8,9.6,7.2,15.5,7.1
	c6.1-0.1,12-2.3,15.5-7.1c3.6-4.7,4.7-11,4.8-17.1C405.6,33.7,404.4,27.4,400.7,22.7z M385.3,67.1c-7.4,0-13.9-2.6-18-8.3
	c-4.2-5.5-5.5-12.5-5.5-19c-0.1-6.6,1.3-13.5,5.5-19c4.1-5.5,10.9-8.4,18-8.2c7.1,0.1,13.9,2.7,18.1,8.2s5.4,12.5,5.5,19
	c0.1,6.6-1.2,13.5-5.5,19C399.3,64.3,392.9,67.1,385.3,67.1z M447.1,37.4c1.9-2.3,3.1-5.2,3-8.2c-0.1-3.4-1.5-6.7-3.9-9.1
	c-2.2-2.2-5.5-3.6-8.6-3.6h-17.7v25.4h17.7C441.2,41.9,444.8,40.2,447.1,37.4z M450.5,66l-10.3-21.2c-0.9,0.1-1.7,0.2-2.6,0.2h-17.7
	v21h-3.1V13.5h20.8c1.9,0,3.8,0.4,5.6,1.1c1.9,0.7,3.7,1.9,5.2,3.3c3.1,2.9,5,7.1,5,11.4c0,3.9-1.6,7.7-4.2,10.6
	c-1.6,1.8-3.6,3.1-5.9,4.1l10.8,22.1L450.5,66L450.5,66L450.5,66z M502.1,66h-4.3L473,40.2h-6.3V66h-3.1V13.5h3.1v23.6h6.3
	l20.5-23.6h4.1l-21.8,25.1L502.1,66z"/>
<path class="st0" d="M276.2,44c-3.2,16-17.4,28-34.3,28s-31.1-12-34.3-28H276.2z"/>
<path class="st1" d="M203.9,31v-1h3.7c2.7-13.4,13.1-24,26.3-27.1V0h16v2.9C263.1,6,273.5,16.6,276.2,30h3.7v1H203.9z"/>
<path class="st2" d="M233.9,30V6.7c-2.6,1.3-6.1,3.6-9,7.3c-4.1,5.3-7.1,13.3-8.4,17h-12.4l0.1-1h3.3c2.7-13.4,13.1-24,26.3-27.1V0
	h1h1v30H233.9z"/>
<rect x="203.9" y="30" class="st1" width="76" height="9"/>
</svg>
