<?xml version="1.0" encoding="utf-8"?>
<!-- Generator: Adobe Illustrator 22.1.0, SVG Export Plug-In . SVG Version: 6.00 Build 0)  -->
<svg version="1.1" id="Layer_1" xmlns="http://www.w3.org/2000/svg" xmlns:xlink="http://www.w3.org/1999/xlink" x="0px" y="0px"
	 viewBox="0 0 494 448.4" style="enable-background:new 0 0 494 448.4;" xml:space="preserve">
<style type="text/css">
	.st0{fill:#333E48;}
</style>
<path class="st0" d="M395.8,387.3h-7.2c-3.9,0-7,3.1-7,7s3.1,7,7,7h7.2c3.9,0,7-3.1,7-7S399.7,387.3,395.8,387.3z"/>
<path class="st0" d="M464.9,333.4l-12.2-4.1l14.4-1.8c3.8-0.5,6.6-4,6.1-7.8c0-0.2-0.1-0.4-0.1-0.6l-17.3-83.8
	c8.1-5.7,11.8-15.8,9.5-25.4c-1.4-6-5.6-11-11.3-13.4l0.1-17.5v0l0-10.7c0.2-45.3-36.3-82.2-81.6-82.4s-82.2,36.3-82.4,81.6
	c0,0.1,0,0.2,0,0.3l0.1,25.7c0,0.1,0,0.1,0,0.2l0.1,3c-5.6,2.5-9.7,7.4-11.1,13.4c-2.6,10.4,2.1,21.3,11.5,26.6l-21.9,82.2
	c-1,3.7,1.2,7.6,5,8.6c0,0,0.1,0,0.1,0c5.2,1.2,10.5,2,15.9,2.6l-10.1,3.4c-2.3,0.8-4.5,1.7-6.6,2.9l-63.7-20.6v-30.5
	c24-14.4,40.8-38.4,46.1-65.9l3.9-13.5c15.7-5.2,24.8-21.6,20.9-37.7c-2-8.4-8.1-15.2-16.3-18v-44.4C264.2,47.5,217.2,0.2,159.1,0
	S53.7,46.8,53.5,104.9c0,0.2,0,0.4,0,0.7V150c-8.2,2.8-14.3,9.6-16.3,18.1c-3.9,16.1,5.1,32.5,20.9,37.7l3.9,13.5
	c5.3,27.5,22.1,51.5,46.1,65.9v30.5l-67.5,21.9c-19,6.2-33.4,21-38.6,39.7c-0.2,0.7-0.4,1.5-0.6,2.2c-0.9,4.1-1.4,8.4-1.4,12.6v49.3
	c0,3.9,3.1,7,7,7h303.4c3.9,0,7-3.1,7-7v-16.1H487c3.9,0,7-3.1,7-7V374C494,355.6,482.3,339.3,464.9,333.4z M340.3,327.6l24.9,24.8
	v15.8l-37.4-36.4L340.3,327.6z M365.7,310.8h13.1c5.6,0,11.2-0.7,16.6-2.1v8l-23.1,23l-23.1-23v-8
	C354.6,310.1,360.1,310.8,365.7,310.8z M379.2,352.6l25-25l12.5,4.2l-37.5,36.5V352.6z M426.6,320.4l3.9-4.8l10.8,9.8L426.6,320.4z
	 M451.1,315.4l-16.7-15.1c-2.9-2.6-7.3-2.4-9.9,0.5c-0.1,0.1-0.2,0.2-0.2,0.3l-11.8,14.5l-3.1-1v-11.2c8.1-4.2,15.4-9.8,21.6-16.6
	c6.9-7.6,12.3-16.5,15.9-26.1l11.1,54L451.1,315.4z M391.6,170.9c2.7-2.3,5.3-4.7,7.8-7.2c10.5,11.2,20.8,16.4,40.7,21l0,6.4
	C422.2,189.6,405.2,182.6,391.6,170.9z M372.2,99.7c37.6,0,68,30.5,68,68c0,0.1,0,0.3,0,0.4l0,2.1c-16.6-4.1-23.7-8.5-31.6-17.3
	c3.6-4.8,6.8-9.7,9.8-14.9c1.9-3.4,0.8-7.6-2.6-9.6c-3.4-1.9-7.6-0.8-9.6,2.6c0,0,0,0.1-0.1,0.1c-26,46-63.5,48.1-81.5,49.1l-0.3,0
	c-5.2,0.3-10.2,3.9-12.8,9.4c-0.4,0.9-1.2,1.6-2.1,2c-1.7,0.8-3.7,0.5-5-0.9l-0.3-0.3l-0.1-22.8C304.2,130.2,334.6,99.8,372.2,99.7z
	 M292.8,213.3c0.6-2.5,2.8-4.3,5.3-4.5c2.2-0.2,4.2-1.4,5.3-3.3c8.4,2,17-2.1,20.8-9.9c0.3-0.6,0.7-1.1,1.2-1.5h0.1
	c11.6-0.7,32.9-1.8,54.5-15c16.7,15.4,38.2,24.6,60.9,25.9c1.1,2.1,3.2,3.6,5.6,3.8c2.6,0.2,4.7,2,5.3,4.5c1.3,5.4-2,10.8-7.4,12.1
	c-0.2,0.1-0.4,0.1-0.6,0.1c-3.3,0.6-5.8,3.5-5.8,6.9v0.1c-0.1,16.5-6.3,32.5-17.4,44.8c-11.3,12.5-26.2,19.4-41.8,19.4h-13.1
	c-15.6,0-30.4-6.9-41.8-19.4c-11.1-12.3-17.3-28.2-17.4-44.8v-0.1c0-3.4-2.4-6.3-5.8-6.9c-5.5-1-9.1-6.2-8.1-11.6
	C292.7,213.8,292.7,213.6,292.8,213.3L292.8,213.3z M298.3,262.2c3.6,9,8.8,17.4,15.3,24.6c6.1,6.8,13.4,12.5,21.6,16.6v11.2
	l-5.7,1.9c-2.6,0-5.3-0.1-7.8-0.2l-0.7,0l-0.8-14.7c-0.2-3.9-3.5-6.8-7.4-6.6c-1.8,0.1-3.5,0.9-4.7,2.2L290.3,316
	c-2.3-0.3-4.3-0.6-6-0.8L298.3,262.2z M307.1,318.6l0.3,4.9c0,0.2,0,0.4,0.1,0.5l-8,2.7L307.1,318.6z M167.1,107.9
	c8.7,9.2,35.5,33.1,82.8,38v2.9c-18.6-0.5-72.4-4.6-115.4-34.7C145.6,112.6,156.4,110.6,167.1,107.9z M67.5,105.6
	c-0.2-50.4,40.6-91.4,91-91.6c50.4-0.2,91.4,40.6,91.6,91c0,0.2,0,0.4,0,0.6v26.2c-34.3-4-56.5-19.1-67.3-28.5
	c16.1-5.3,31.8-12.8,45.2-23c3-2.4,3.6-6.8,1.2-9.8c-2.3-3-6.7-3.6-9.7-1.3c-48.9,37.5-136.2,33.5-137.1,33.5
	c-3.9-0.2-7.2,2.8-7.3,6.6c0,0,0,0,0,0l-1.6,35.7c-0.1,2.2-1.3,4.1-3.2,5.1c-0.8,0.4-1.7,0.7-2.6,0.8L67.5,105.6z M75.6,216.3
	c0-0.2-0.1-0.4-0.2-0.7l-4.9-16.9c-0.5-2.9-2.8-5.2-5.7-5.7c-9.6-1.7-16.1-10.9-14.3-20.5c0.1-0.4,0.1-0.7,0.2-1.1
	c0.9-4,3.9-7.2,7.9-8.3c10.1,4.7,22.1,0.4,26.8-9.7c1.1-2.4,1.8-5,1.9-7.7l1.3-28.8c5.8,0.1,14.8,0,25.8-0.8
	c57.7,49.4,139.4,46.8,142.9,46.7c0.1,0,0.3,0,0.4,0c4.5,0.8,8,4.2,9,8.6c2.3,9.5-3.5,19.1-13,21.4c-0.4,0.1-0.7,0.2-1.1,0.2
	c-2.9,0.5-5.2,2.8-5.7,5.7l-4.9,16.9c-0.1,0.2-0.1,0.4-0.2,0.7c-8.6,45.9-52.8,76.1-98.7,67.5C108.8,277.3,82,250.5,75.6,216.3
	L75.6,216.3z M158.7,299.2c12.6,0,25-2.4,36.7-7.1v24.4c-23.2,11-50.2,11-73.4,0v-24.4C133.7,296.8,146.1,299.2,158.7,299.2z
	 M303.4,434.4H14v-42.3c0-3.2,0.3-6.3,1-9.4c0.1-0.6,0.3-1.1,0.4-1.7c3.9-14.1,14.9-25.4,29.4-30.1l69.5-22.5
	c28,13.9,60.9,13.9,88.8,0l69.5,22.5c14.3,4.4,25.3,15.8,29.4,30.1c0.2,0.6,0.3,1.1,0.4,1.7c0.7,3.1,1,6.3,1,9.4L303.4,434.4z
	 M316,379.5c-0.2-0.7-0.4-1.5-0.6-2.2c-3.8-13.6-12.5-25.3-24.4-33l21.8-7.4l52.3,50.8v23.5h-47.8v-19.2
	C317.4,387.8,317,383.6,316,379.5L316,379.5z M480,411.3H379.2v-23.4l52.4-51l28.8,9.8c11.7,4,19.6,15,19.6,27.3V411.3z"/>
</svg>
