<?xml version="1.0" encoding="utf-8"?>
<!-- Generator: Adobe Illustrator 22.1.0, SVG Export Plug-In . SVG Version: 6.00 Build 0)  -->
<svg version="1.1" id="Слой_1" xmlns="http://www.w3.org/2000/svg" xmlns:xlink="http://www.w3.org/1999/xlink" x="0px" y="0px"
	 viewBox="0 0 415.8 512" style="enable-background:new 0 0 415.8 512;" xml:space="preserve">
<style type="text/css">
	.st0{fill:#333E48;}
</style>
<path class="st0" d="M47.1,183.9H32.1V32.1h39.6v15.1H47.1V183.9z"/>
<path class="st0" d="M32.1,199.9h15.1v16H32.1V199.9z"/>
<path class="st0" d="M159.8,0v15.1h240.9v265h15.1V0H159.8z"/>
<path class="st0" d="M400.7,392.7H296.5v71.7h15.1v-56.6h78.4L301,496.9H15.1V15.1h120.7V0H0v512h307.2l108.6-108.6v-99.3h-15.1
	V392.7z"/>
<path class="st0" d="M95.7,109.1L85,98.4l-10.7,10.7l21.4,21.4L141.1,85l-10.7-10.7L95.7,109.1z"/>
<path class="st0" d="M151.8,80.1h56.1v15.1h-56.1V80.1z"/>
<path class="st0" d="M151.8,112.2h136.3v15.1H151.8V112.2z"/>
<path class="st0" d="M141.1,165.2l-10.7-10.7l-34.7,34.7L85,178.5l-10.7,10.7l21.4,21.4L141.1,165.2z"/>
<path class="st0" d="M151.8,160.3h56.1v15.1h-56.1V160.3z"/>
<path class="st0" d="M151.8,192.4h136.3v15.1H151.8V192.4z"/>
<path class="st0" d="M95.7,290.7l45.4-45.4l-10.7-10.7l-34.7,34.7L85,258.7l-10.7,10.7L95.7,290.7z"/>
<path class="st0" d="M151.8,240.4h56.1v15.1h-56.1V240.4z"/>
<path class="st0" d="M151.8,272.5h136.3v15.1H151.8V272.5z"/>
<path class="st0" d="M95.7,370.9l45.4-45.4l-10.7-10.7l-34.7,34.7L85,338.8l-10.7,10.7L95.7,370.9z"/>
<path class="st0" d="M151.8,320.6h56.1v15.1h-56.1V320.6z"/>
<path class="st0" d="M151.8,352.6h136.3v15.1H151.8V352.6z"/>
</svg>
