<?xml version="1.0" encoding="utf-8"?>
<!-- Generator: Adobe Illustrator 22.1.0, SVG Export Plug-In . SVG Version: 6.00 Build 0)  -->
<svg version="1.1" id="Слой_1" xmlns="http://www.w3.org/2000/svg" xmlns:xlink="http://www.w3.org/1999/xlink" x="0px" y="0px"
	 viewBox="0 0 460.9 473" style="enable-background:new 0 0 460.9 473;" xml:space="preserve">
<style type="text/css">
	.st0{fill:#333E48;}
</style>
<path class="st0" d="M173.8,396.5c0.1,0,0.2,0.1,0.4,0.1l80.3,14.8c21.8,3.9,44.3,0.7,64.2-9.1c0.3-0.1,0.5-0.3,0.7-0.4l138.9-95.4
	c2.6-1.8,3.4-5.3,1.7-8c-10.5-17.5-32.9-23.6-50.8-13.9l-2.4,1.3c-9.6-11.6-26.1-16.1-38.8-9.7l-0.1,0.1l-5.6,3
	c-13.7-11.6-33.1-13.3-48.6-4.4l-30.1,16.4h-40c-8.7,0-17.2-2-25-5.7l-5.5-2.7c-32-15.6-70-11.8-98.4,9.6c-0.1,0.1-0.3,0.2-0.4,0.3
	L101,304.5c-5,4.5-11,7.8-17.4,9.7L76,289.5c-0.8-2.5-3.1-4.2-5.7-4.2H6c-1.7,0-3.3,0.7-4.5,2c-1.1,1.3-1.7,3-1.5,4.7l21.4,175.8
	c0.4,3,2.9,5.3,5.9,5.3h96.5c1.9,0,3.7-0.9,4.8-2.4c1.1-1.5,1.5-3.5,0.9-5.3L117,423.7l39.5-25C161.7,395.8,167.9,395,173.8,396.5z
	 M373.5,286.8c7.3-3.7,16.5-0.7,22.4,4.9l-52.7,28.4l-3.1,1.6c-1.7-4.7-4.1-9.2-7.2-13.1L373.5,286.8z M319.5,285.3l0.1-0.1
	c9.6-5.6,21.5-5.4,31,0.3l-26.8,14.4c-5.1-3.7-10.9-6.3-17.1-7.7L319.5,285.3z M32.7,461l-20-163.8h53.1L115.8,461H32.7z
	 M150.2,388.5l-36.8,23.3l-26.2-86.1c8.1-2.4,15.6-6.6,21.9-12.2l13.1-11.7c24.8-18.6,57.9-21.8,85.7-8.2l5.5,2.7
	c9.4,4.5,19.8,6.9,30.3,6.9H297c16.2,0,30.1,11.5,33.1,27.4l-38.7-1.8c-14.1-0.6-28.2,0-42.1,1.9c-2.1,0.3-4,1.7-4.8,3.7
	c-0.8,2-0.5,4.3,0.8,6s3.5,2.5,5.6,2.2c13.2-1.8,26.6-2.4,40-1.8l45.6,2.1c0.1,0,0.2,0,0.3,0c3.3,0,6-2.7,6-6c0-1,0-1.9-0.1-2.9
	l6.2-3.3l66-35.6c10.4-5.6,23.3-3.6,31.5,5L313,391.7c-17.5,8.5-37.2,11.3-56.4,7.8l-80.1-14.7c-8.8-2.2-18.1-0.9-26,3.5
	C150.4,388.4,150.3,388.4,150.2,388.5L150.2,388.5z"/>
<path class="st0" d="M51.8,436.2c0,10.4,8.4,18.9,18.9,18.9c10.4,0,18.8-8.4,18.8-18.9c0-10.4-8.4-18.8-18.8-18.8
	C60.2,417.4,51.8,425.8,51.8,436.2z M70.6,429.4c3.8,0,6.9,3.1,6.9,6.9c0,3.8-3.1,6.9-6.9,6.9c-3.8,0-6.9-3.1-6.9-6.9
	C63.7,432.5,66.8,429.4,70.6,429.4z"/>
<path class="st0" d="M227,242.2c1.1,0.3,2.2,0.3,3.3,0c18.8-5.9,36.5-14.7,52.6-26c34.9-24.6,53.3-57.4,53.3-94.7V63.7
	c0-2.4-1.4-4.6-3.6-5.5l-0.7-0.3c-34.8-15-67.6-34-97.9-56.7c-2.1-1.6-5.1-1.6-7.2,0c-30.3,22.7-63.2,41.7-97.9,56.7l-0.7,0.3
	c-2.2,0.9-3.6,3.1-3.6,5.5v57.9c0,37.2,17.8,69.9,51.5,94.6C191.6,227.5,208.8,236.3,227,242.2z M136.6,121.6v-54
	c33.2-14.5,64.6-32.7,93.8-54.2c29.2,21.5,60.6,39.6,93.8,54.2v54c0,25.8-9.5,48.6-28.3,68v-1.1c0-3.3-2.7-6-6-6c-3.3,0-6,2.7-6,6
	v6.1c0,1.7,0.7,3.2,1.9,4.4c-3,2.5-6.2,5-9.6,7.4c-14.6,10.2-30.6,18.3-47.5,23.9c-16.4-5.7-31.8-13.7-45.8-23.9
	c-3-2.2-5.9-4.5-8.6-6.8c1.6-1.1,2.6-3,2.6-4.9v-6.1c0-3.3-2.7-6-6-6c-3.3,0-6,2.7-6,6v2.2C146.1,171,136.6,147.8,136.6,121.6z"/>
<path class="st0" d="M230.4,182.4c-3.3,0-6,2.7-6,6v6.1c0,3.3,2.7,6,6,6c3.3,0,6-2.7,6-6v-6.1C236.4,185.1,233.7,182.4,230.4,182.4z
	"/>
<path class="st0" d="M250.3,182.4c-3.3,0-6,2.7-6,6v6.1c0,3.3,2.7,6,6,6s6-2.7,6-6v-6.1C256.3,185.1,253.6,182.4,250.3,182.4z"/>
<path class="st0" d="M264.1,188.4v6.1c0,3.3,2.7,6,6,6s6-2.7,6-6v-6.1c0-3.3-2.7-6-6-6S264.1,185.1,264.1,188.4z"/>
<path class="st0" d="M210.6,182.4c-3.3,0-6,2.7-6,6v6.1c0,3.3,2.7,6,6,6c3.3,0,6-2.7,6-6v-6.1C216.6,185.1,213.9,182.4,210.6,182.4z
	"/>
<path class="st0" d="M190.8,200.5c3.3,0,6-2.7,6-6v-6.1c0-3.3-2.7-6-6-6s-6,2.7-6,6v6.1C184.8,197.8,187.5,200.5,190.8,200.5z"/>
<path class="st0" d="M217.6,145.3c2.3,2.3,6.1,2.3,8.5,0l39.7-39.7c2.3-2.3,2.3-6.1,0-8.4c-2.3-2.3-6.1-2.3-8.4,0l-35.5,35.5
	l-18.4-18.4c-2.3-2.3-6.1-2.3-8.5,0c-2.3,2.3-2.3,6.1,0,8.5L217.6,145.3z"/>
</svg>
