<?xml version="1.0" encoding="utf-8"?>
<!-- Generator: Adobe Illustrator 22.1.0, SVG Export Plug-In . SVG Version: 6.00 Build 0)  -->
<svg version="1.1" id="Слой_1" xmlns="http://www.w3.org/2000/svg" xmlns:xlink="http://www.w3.org/1999/xlink" x="0px" y="0px"
	 viewBox="0 0 479.9 512" style="enable-background:new 0 0 479.9 512;" xml:space="preserve">
<style type="text/css">
	.st0{fill:#333E48;}
</style>
<path class="st0" d="M47.1,183.9H32.1V32.1h39.6v15.1H47.1V183.9z"/>
<path class="st0" d="M32.1,199.9h15.1v16H32.1V199.9z"/>
<path class="st0" d="M368.2,32.1h16v15.1h-16V32.1z"/>
<path class="st0" d="M336.1,32.1h16v15.1h-16V32.1z"/>
<path class="st0" d="M400.7,55.6h15.1V0h-256v15.1h240.9V55.6z"/>
<path class="st0" d="M15.1,15.1h120.7V0H0v512h119.8v-15.1H15.1V15.1z"/>
<path class="st0" d="M400.7,392.7H296.5v104.2H143.8V512h163.4l108.6-108.6V296.1h-15.1V392.7z M390.1,407.8l-78.4,78.4v-78.4H390.1
	z"/>
<path class="st0" d="M95.7,272.5H280v15.1H95.7V272.5z"/>
<path class="st0" d="M55.6,312.6h304.6v15.1H55.6V312.6z"/>
<path class="st0" d="M55.6,352.6h304.6v15.1H55.6V352.6z"/>
<path class="st0" d="M55.6,392.7H280v15.1H55.6V392.7z"/>
<path class="st0" d="M55.6,432.8H232v15.1H55.6V432.8z"/>
<path class="st0" d="M112.2,111.7c0,12,5.4,22.7,13.8,30c-22.3,9.9-37.8,32.3-37.8,58.2c0,13.7,6.6,39.6,31.6,39.6h64.1
	c25,0,31.6-25.9,31.6-39.6c0-25.9-15.6-48.2-37.8-58.2c8.4-7.3,13.8-18,13.8-30c0-21.8-17.8-39.6-39.6-39.6
	C130,72.1,112.2,89.9,112.2,111.7z M164.1,152.9l-12.3,12.3l-12.3-12.3c3.9-1,8-1.6,12.3-1.6S160.2,151.9,164.1,152.9z M200.4,199.9
	c0,0.1-0.1,7.1-2.6,13.7c-3.8,9.7-9.7,10.8-13.9,10.8h-64.1c-4.1,0-10.1-1.1-13.9-10.8c-2.6-6.6-2.6-13.6-2.6-13.7
	c0-16.8,8.6-31.6,21.6-40.4l27,27l27-27C191.8,168.3,200.4,183.1,200.4,199.9z M151.8,87.2c13.5,0,24.5,11,24.5,24.5
	c0,13.5-11,24.5-24.5,24.5s-24.5-11-24.5-24.5C127.3,98.2,138.3,87.2,151.8,87.2z"/>
<path class="st0" d="M368.2,64.1c-61.6,0-111.7,50.1-111.7,111.7c0,61.6,50.1,111.7,111.7,111.7c30.7,0,59.4-12.2,80.6-34.4
	l-10.9-10.4c-18.4,19.2-43.2,29.7-69.7,29.7c-53.3,0-96.6-43.4-96.6-96.6c0-53.3,43.4-96.6,96.6-96.6c53.3,0,96.6,43.4,96.6,96.6
	c0,18.3-5.1,36.1-14.9,51.5l12.8,8.1c11.2-17.8,17.2-38.4,17.2-59.6C479.9,114.2,429.8,64.1,368.2,64.1z"/>
<path class="st0" d="M375.8,240v-56.6h56.6v-15.1h-56.6v-56.6h-15.1v56.6h-56.6v15.1h56.6V240H375.8z"/>
</svg>
