<?xml version="1.0" encoding="utf-8"?>
<!-- Generator: Adobe Illustrator 22.1.0, SVG Export Plug-In . SVG Version: 6.00 Build 0)  -->
<svg version="1.1" id="Слой_1" xmlns="http://www.w3.org/2000/svg" xmlns:xlink="http://www.w3.org/1999/xlink" x="0px" y="0px"
	 viewBox="0 0 475.7 493" style="enable-background:new 0 0 475.7 493;" xml:space="preserve">
<style type="text/css">
	.st0{fill:#333E48;}
</style>
<path class="st0" d="M81.7,117.8H48c-3.3,0-6,2.7-6,6c0,3.3,2.7,6,6,6h33.7c3.3,0,6-2.7,6-6C87.7,120.5,85,117.8,81.7,117.8z"/>
<path class="st0" d="M199.2,129.8h33.7c3.3,0,6-2.7,6-6c0-3.3-2.7-6-6-6h-33.7c-3.3,0-6,2.7-6,6
	C193.2,127.1,195.9,129.8,199.2,129.8z"/>
<path class="st0" d="M157.3,117.8h-33.7c-3.3,0-6,2.7-6,6c0,3.3,2.7,6,6,6h33.7c3.3,0,6-2.7,6-6
	C163.3,120.5,160.6,117.8,157.3,117.8z"/>
<path class="st0" d="M81.7,178.7H48c-3.3,0-6,2.7-6,6c0,3.3,2.7,6,6,6h33.7c3.3,0,6-2.7,6-6C87.7,181.4,85,178.7,81.7,178.7z"/>
<path class="st0" d="M199.2,190.7h33.7c3.3,0,6-2.7,6-6c0-3.3-2.7-6-6-6h-33.7c-3.3,0-6,2.7-6,6C193.2,188,195.9,190.7,199.2,190.7z
	"/>
<path class="st0" d="M157.3,178.7h-33.7c-3.3,0-6,2.7-6,6c0,3.3,2.7,6,6,6h33.7c3.3,0,6-2.7,6-6
	C163.3,181.4,160.6,178.7,157.3,178.7z"/>
<path class="st0" d="M81.7,239.6H48c-3.3,0-6,2.7-6,6c0,3.3,2.7,6,6,6h33.7c3.3,0,6-2.7,6-6C87.7,242.3,85,239.6,81.7,239.6z"/>
<path class="st0" d="M199.2,251.6h33.7c3.3,0,6-2.7,6-6c0-3.3-2.7-6-6-6h-33.7c-3.3,0-6,2.7-6,6
	C193.2,248.9,195.9,251.6,199.2,251.6z"/>
<path class="st0" d="M157.3,239.6h-33.7c-3.3,0-6,2.7-6,6c0,3.3,2.7,6,6,6h33.7c3.3,0,6-2.7,6-6
	C163.3,242.3,160.6,239.6,157.3,239.6z"/>
<path class="st0" d="M81.7,300.5H48c-3.3,0-6,2.7-6,6c0,3.3,2.7,6,6,6h33.7c3.3,0,6-2.7,6-6C87.7,303.2,85,300.5,81.7,300.5z"/>
<path class="st0" d="M157.3,300.5h-33.7c-3.3,0-6,2.7-6,6c0,3.3,2.7,6,6,6h33.7c3.3,0,6-2.7,6-6
	C163.3,303.2,160.6,300.5,157.3,300.5z"/>
<path class="st0" d="M344.9,231.5c-18.4-0.1-36.6,3.9-53.4,11.5V66.5c0-3.3-3-5.6-6.3-5.6h-27.6V6.2c0-3.3-3.2-6.2-6.5-6.2H39.8
	c-3.3,0.1-5.9,2.8-5.9,6.2v54.7H5.7c-1.5-0.1-3,0.5-4.1,1.5C0.5,63.5,0,65,0,66.5v399.9c-0.1,1.5,0.5,3,1.6,4.2
	c1.1,1.1,2.6,1.7,4.1,1.7h268.6c21,13.5,45.5,20.7,70.5,20.7c72.1,0,130.9-58.7,130.9-130.8C475.7,290.1,417.1,231.5,344.9,231.5z
	 M45.9,12h199.7v48.9H45.9V12z M187.7,460.3H98.9v-98.8h88.9V460.3z M199.7,460.3V355.6c0-3.4-2.7-6.1-6-6.1H92.6
	c-1.6,0-3.1,0.7-4.1,1.9c-1.1,1.2-1.6,2.7-1.6,4.3v104.7H12V72.9h267.6v176.2c-21,12.1-38.4,29.5-49.9,51.4h-30.4c-3.3,0-6,2.7-6,6
	c0,3.3,2.7,6,6,6h24.7c-6.6,15.8-10,32.7-10,49.8c0,37.5,16.2,73.2,44.4,97.9H199.7z M344.8,481.1c-65.6,0-118.8-53.2-118.8-118.8
	c0-65.6,53.2-118.8,118.8-118.8c65.6,0,118.8,53.2,118.8,118.8C463.5,427.8,410.4,481,344.8,481.1z"/>
<path class="st0" d="M412,305.5h-27.6v-2.3c0-5.5-2.2-10.8-6.1-14.7c-3.9-3.9-9.2-6-14.7-6h-38.4c-5.5,0-10.8,2.1-14.7,6
	c-3.9,3.9-6.1,9.2-6.1,14.7v2.3h-27.6c-12,0-21.3,10-21.3,22v19.9c-0.1,5.8,2.9,11.2,8,14v56.3c0,4.7,1.9,9.2,5.2,12.4
	c3.3,3.3,7.9,5.1,12.6,5h126.2c4.7,0.1,9.2-1.7,12.6-5c3.3-3.3,5.2-7.8,5.2-12.4v-56.2c5-2.3,8.1-7.3,8-12.8v-21.4
	C433.3,315.5,424,305.5,412,305.5z M316.5,303.2c0-2.3,0.9-4.6,2.5-6.2c1.6-1.6,3.9-2.5,6.2-2.5h38.4c2.3,0,4.6,0.9,6.2,2.5
	c1.6,1.6,2.6,3.9,2.5,6.2v2.3h-55.9V303.2z M267.6,327.6c0-5.4,3.9-10.1,9.3-10.1H412c5.4,0,9.3,4.6,9.3,10.1v21.4
	c0.1,0.8-0.4,1.6-1.2,1.8l-52.8,15.6v-3.8c0-3.3-2.6-6-5.9-6.1h-34.1c-3.3,0.1-6,2.8-5.9,6.1v4.4l-51.3-15.7
	c-1.6-0.5-2.7-2.1-2.6-3.8V327.6z M355.4,368.4v12.8c0,6.1-4.9,11-11,11c-6.1,0-11-4.9-11-11v-12.8H355.4z M407.5,423.3H281.4
	c-1.5,0.1-3-0.4-4.1-1.5c-1.1-1-1.7-2.5-1.7-4v-52.4l45.9,14v1.8c0,12.7,10.3,23,23,23c12.7,0,23-10.3,23-23v-2.4l45.9-13.5v52.5
	c0,1.5-0.6,2.9-1.7,4C410.5,422.9,409.1,423.4,407.5,423.3z"/>
</svg>
