<?xml version="1.0" encoding="utf-8"?>
<!-- Generator: Adobe Illustrator 22.1.0, SVG Export Plug-In . SVG Version: 6.00 Build 0)  -->
<svg version="1.1" id="Layer_1" xmlns="http://www.w3.org/2000/svg" xmlns:xlink="http://www.w3.org/1999/xlink" x="0px" y="0px"
	 viewBox="0 0 331.3 468" style="enable-background:new 0 0 331.3 468;" xml:space="preserve">
<style type="text/css">
	.st0{fill:#333E48;}
</style>
<path class="st0" d="M7,468h317.3c3.9,0,7-3.1,7-7v-51.6c0-4.4-0.4-8.8-1.4-13.1c-0.2-0.8-0.4-1.5-0.6-2.3
	c-5.3-19.5-20.3-34.9-40.1-41.3l-70.8-23v-32.3c25.2-15,42.7-40.1,48.2-68.8l4.2-14.3c16.4-5.3,25.8-22.4,21.8-39.1
	c-2.1-8.8-8.5-15.8-17.1-18.7v-46.7C275.4,49.1,226.3,0,165.7,0S55.9,49.1,55.9,109.8v46.7c-8.5,2.9-15,10-17.1,18.7
	c-4.1,16.7,5.4,33.7,21.8,39.1l4.2,14.3c5.5,28.8,23.1,53.8,48.2,68.8v32.3l-70.8,23C22.3,359.1,7.3,374.5,2,394
	c-0.2,0.8-0.4,1.5-0.6,2.3c-1,4.3-1.5,8.7-1.4,13.1V461C0,464.8,3.1,468,7,468L7,468z M174.5,111.8c8.9,9.5,37,34.7,86.9,39.9v3.6
	c-19.3-0.5-76.5-4.7-121.9-36.9l0.6-0.1C151.7,116.8,163.2,114.6,174.5,111.8z M69.9,109.8c0-52.9,42.9-95.7,95.8-95.7
	c52.9,0,95.7,42.9,95.7,95.7v27.8c-36.7-4.2-60.2-20.4-71.3-30.2c18.7-6.1,34.7-14.2,47.7-24.2c3.1-2.4,3.6-6.7,1.3-9.8
	c-2.4-3.1-6.7-3.6-9.8-1.3c-26.6,20.4-64,28.8-90.7,32.4c-17.5,2.3-35.2,3.3-52.9,2.7c-3.9-0.2-7.2,2.8-7.3,6.6c0,0,0,0,0,0
	l-1.7,37.3c-0.1,2.4-1.4,4.5-3.5,5.6c-1,0.5-2.1,0.8-3.2,0.8L69.9,109.8z M78.4,225.6c0-0.2-0.1-0.4-0.2-0.7l-5.1-17.7
	c-0.5-2.9-2.8-5.2-5.7-5.7c-10.3-1.8-17.1-11.6-15.3-21.9c0.1-0.4,0.2-0.8,0.2-1.2c1-4.3,4.3-7.8,8.6-9c10.3,4.9,22.7,0.6,27.7-9.8
	c1.2-2.5,1.9-5.2,2-8l1.4-30.5c6,0.1,15.6-0.1,27.3-0.9c31.2,26.8,69.5,38.6,96.5,43.9c29.8,5.8,51.9,5,52.9,5c0.2,0,0.3,0,0.5,0
	c4.8,0.9,8.6,4.5,9.7,9.3c2.5,10.1-3.7,20.3-13.8,22.8c-0.4,0.1-0.8,0.2-1.2,0.2c-2.9,0.5-5.2,2.8-5.7,5.7l-5.1,17.7
	c-0.1,0.2-0.1,0.4-0.2,0.7c-9.1,48.2-55.5,79.9-103.6,70.8C113.3,289.7,85.2,261.5,78.4,225.6L78.4,225.6z M165.7,312
	c13.3,0,26.4-2.6,38.7-7.6v26.2c-24.5,11.7-52.9,11.7-77.4,0v-26.2C139.2,309.4,152.4,312,165.7,312z M14,409.4c0-3.3,0.3-6.7,1-9.9
	c0.1-0.6,0.3-1.2,0.4-1.8c4.1-14.9,15.7-26.8,30.9-31.7l72.8-23.6c29.2,14.6,63.6,14.6,92.9,0l72.8,23.6c15.3,5,26.9,16.8,30.9,31.7
	c0.2,0.6,0.3,1.2,0.4,1.8c0.7,3.3,1.1,6.6,1,9.9V454H14V409.4z"/>
</svg>
